<svg id="Layer_1" data-name="Layer 1" xmlns="http://www.w3.org/2000/svg" viewBox="0 0 445.18 335.5"><defs><style>.cls-1{fill:#5ab0bc;}</style></defs><path class="cls-1" d="M363.4,84.8H147.6A39.92,39.92,0,0,0,109,114.4L78.3,228.6H432.7L402,114.4A40.09,40.09,0,0,0,363.4,84.8Z" transform="translate(-32.86 -84.8)"/><path class="cls-1" d="M78.34,195.81a33,33,0,0,0-16.58-4.34c-16,0-28.9,10.74-28.9,24,0,11,9,20.33,21.2,23.13a26.25,26.25,0,0,1,18.4-7.53h-3.6Z" transform="translate(-32.86 -84.8)"/><path class="cls-1" d="M432.56,195.81a33,33,0,0,1,16.58-4.34c16,0,28.9,10.74,28.9,24,0,11-9,20.33-21.2,23.13a26.25,26.25,0,0,0-18.4-7.53H442Z" transform="translate(-32.86 -84.8)"/><path class="cls-1" d="M95,420.3H73.55a16.35,16.35,0,0,1-16.4-16.4v-30h54.3v30A16.5,16.5,0,0,1,95,420.3Z" transform="translate(-32.86 -84.8)"/><path class="cls-1" d="M437.35,420.3h-21.5a16.35,16.35,0,0,1-16.4-16.4v-30h54.3v30A16.41,16.41,0,0,1,437.35,420.3Z" transform="translate(-32.86 -84.8)"/><path class="cls-1" d="M83.2,288.61c-4.11,14.64,17.39,23.92,29.3,25.53,17.55,2.38,25.68-5.29,25.68-12.73C138.1,283.32,86.18,277.72,83.2,288.61Z" transform="translate(-32.86 -84.8)"/><path class="cls-1" d="M415.51,288.61c3.91,14.64-16.56,23.92-27.91,25.53-16.72,2.38-24.46-5.29-24.46-12.73C363.21,283.32,412.67,277.72,415.51,288.61Z" transform="translate(-32.86 -84.8)"/><path class="cls-1" d="M429,238.6H81.9a26.33,26.33,0,0,0-26.3,26.3v99H455.3v-99A26.33,26.33,0,0,0,429,238.6ZM113,318.8c-14.8-2.1-41.5-14.2-36.4-33.3,3.7-14.2,68.2-6.9,68.3,16.7C144.9,311.9,134.8,321.9,113,318.8Zm274,0c-21.8,3.1-31.9-6.9-31.9-16.6.1-23.6,64.6-30.9,68.3-16.7C428.5,304.6,401.8,316.7,387,318.8Z" transform="translate(-32.86 -84.8)"/></svg>