<?xml version="1.0" encoding="utf-8"?>
<!-- Generator: Adobe Illustrator 26.0.0, SVG Export Plug-In . SVG Version: 6.00 Build 0)  -->
<svg version="1.1" id="Layer_1" xmlns="http://www.w3.org/2000/svg" xmlns:xlink="http://www.w3.org/1999/xlink" x="0px" y="0px"
	 viewBox="0 0 500 500" style="enable-background:new 0 0 500 500;" xml:space="preserve">
<style type="text/css">
	.st0{fill:#5AB0BC;stroke:#FFFFFF;stroke-width:10.5549;stroke-linecap:round;stroke-miterlimit:10;}
	.st1{fill:#5AB0BC;}
	.st2{fill:#5AB0BC;stroke:#FFFFFF;stroke-width:10.5549;stroke-miterlimit:10;}
	.st3{fill:none;stroke:#FFFFFF;stroke-width:10.5549;stroke-linecap:round;stroke-miterlimit:10;}
</style>
<path class="st0" d="M67.4,408.3h78.2v22.4c0,11.8,11.7,21.4,26.2,21.4h23.4c14.5,0,26.2-9.6,26.2-21.4v-50.6c0-0.4-0.1-0.8-0.1-1.2
	c0-0.4,0.1-0.8,0.1-1.2V272.4c0-16.9-16.8-30.6-37.6-30.6H67.4"/>
<g>
	<circle class="st1" cx="361.7" cy="87" r="33.7"/>
	<path class="st1" d="M361.7,58.5c15.7,0,28.4,12.8,28.4,28.4s-12.8,28.4-28.4,28.4s-28.4-12.8-28.4-28.4S346,58.5,361.7,58.5
		 M361.7,48c-21.5,0-39,17.4-39,39s17.5,39,39,39s39-17.4,39-39S383.2,48,361.7,48L361.7,48z"/>
</g>
<path class="st2" d="M408.1,285.4h20.2c9.8,0,17.7-6.7,17.7-14.9V158.8c0-12.3-11.8-22.2-26.5-22.2h-25.7c-4.1,0-7.7,2.2-8.9,5.5
	l-22.8,60.6c-0.1,0.4-0.8,0.4-1,0l-22.8-60.6c-1.2-3.3-4.9-5.5-8.9-5.5h-25.7c-14.6,0-26.5,10-26.5,22.2v111.7
	c0,8.2,7.9,14.9,17.7,14.9h20.2"/>
<path class="st0" d="M408.1,180.9V430c0,12.2-11.7,22-26.2,22h-40.3c-14.5,0-26.2-9.9-26.2-22V180.9"/>
<line class="st3" x1="361.7" y1="292.3" x2="361.7" y2="452"/>
<path class="st3" d="M182.6,325.4c-11.4-8.6-49.9,11.1-51.3,25s48.5,13.2,51.3,9S188.1,329.5,182.6,325.4z"/>
<path class="st0" d="M67.4,285.6h120.1c16.7,0,28.8-17.3,24.2-34.6L179,128c-3.1-11.6-13-19.7-24.2-19.7H67.4"/>
<rect x="314.8" y="35.9" class="st2" width="93.2" height="44.8"/>
</svg>
