<?xml version="1.0" encoding="utf-8"?>
<!-- Generator: Adobe Illustrator 26.0.0, SVG Export Plug-In . SVG Version: 6.00 Build 0)  -->
<svg version="1.1" id="Layer_1" xmlns="http://www.w3.org/2000/svg" xmlns:xlink="http://www.w3.org/1999/xlink" x="0px" y="0px"
	 viewBox="0 0 500 500" style="enable-background:new 0 0 500 500;" xml:space="preserve">
<style type="text/css">
	.st0{fill:#5AB0BC;stroke:#FFFFFF;stroke-width:9.8908;stroke-miterlimit:10;}
	.st1{fill:#FFFFFF;}
	.st2{fill:#5AB0BC;}
	.st3{fill:none;stroke:#FFFFFF;stroke-width:9.773;stroke-miterlimit:10;}
</style>
<path class="st0" d="M106.8,454.2V61.5c0-6.2,5.1-11.3,11.3-11.3H384c6.2,0,11.3,5.1,11.3,11.3v392.7"/>
<rect x="136.9" y="82.9" class="st1" width="228.2" height="65"/>
<g>
	<circle class="st2" cx="286.9" cy="114.8" r="7.3"/>
</g>
<g>
	<circle class="st2" cx="311.3" cy="114.8" r="7.3"/>
</g>
<g>
	<circle class="st2" cx="334.4" cy="114.8" r="7.3"/>
</g>
<g>
	<rect x="133.8" y="216.9" class="st3" width="232.5" height="231.7"/>
	<line class="st3" x1="133.8" y1="390.7" x2="366.2" y2="390.7"/>
	<line class="st3" x1="133.8" y1="332.7" x2="366.2" y2="332.7"/>
	<line class="st3" x1="133.8" y1="274.8" x2="366.2" y2="274.8"/>
	<line class="st3" x1="319.8" y1="216.9" x2="319.8" y2="448.6"/>
	<line class="st3" x1="273.2" y1="216.9" x2="273.2" y2="448.6"/>
	<line class="st3" x1="226.8" y1="216.9" x2="226.8" y2="448.6"/>
	<line class="st3" x1="180.2" y1="216.9" x2="180.2" y2="448.6"/>
</g>
</svg>
