<?xml version="1.0" encoding="utf-8"?>
<!-- Generator: Adobe Illustrator 26.0.0, SVG Export Plug-In . SVG Version: 6.00 Build 0)  -->
<svg version="1.1" id="Layer_1" xmlns="http://www.w3.org/2000/svg" xmlns:xlink="http://www.w3.org/1999/xlink" x="0px" y="0px"
	 viewBox="0 0 500 500" style="enable-background:new 0 0 500 500;" xml:space="preserve">
<style type="text/css">
	.st0{fill:#5AB0BC;}
	.st1{fill:none;stroke:#FFFFFF;stroke-width:8;stroke-linecap:round;stroke-miterlimit:10;}
	.st2{fill:none;stroke:#FFFFFF;stroke-width:11.0103;stroke-linecap:round;stroke-miterlimit:10;}
	.st3{fill:none;stroke:#5AB0BC;stroke-width:11.0103;stroke-linecap:round;stroke-miterlimit:10;}
</style>
<circle class="st0" cx="319.9" cy="266.7" r="180.1"/>
<path class="st0" d="M293.9,103.8l-8.1,1.2c-4,0.6-7.8-2.1-8.4-6.2l-3.6-23c-0.6-4,2.1-7.8,6.2-8.4l8.1-1.2c4-0.6,7.8,2.1,8.4,6.2
	l3.6,23C300.7,99.4,298,103.2,293.9,103.8z"/>
<path class="st0" d="M438.5,156.5l5.4,6.1c2.7,3.1,7.4,3.3,10.4,0.6l17.4-15.5c3-2.7,3.3-7.4,0.6-10.4l-5.4-6.1
	c-2.7-3.1-7.4-3.3-10.4-0.6l-17.4,15.5C436.1,148.8,435.8,153.5,438.5,156.5z"/>
<rect x="346.6" y="86.8" transform="matrix(0.342 -0.9397 0.9397 0.342 156.1122 419.6938)" class="st0" width="62.2" height="23.2"/>
<path class="st0" d="M419.8,82.8l-64.3-23.4c-3.5-1.3-5.3-5.2-4-8.6l5-13.6c1.3-3.5,5.1-5.3,8.6-4l64.3,23.4c3.5,1.3,5.3,5.2,4,8.6
	l-5,13.6C427.2,82.3,423.3,84.1,419.8,82.8z"/>
<path class="st1" d="M429.8,195.9c13.1,20.4,20.8,44.7,20.8,70.7c0,72.2-58.5,130.7-130.7,130.7s-130.7-58.5-130.7-130.7
	S247.7,136,319.9,136c22.6,0,43.9,5.8,62.5,15.9"/>
<polyline class="st2" points="268,219.6 319.9,277.9 409,171.2 "/>
<line class="st3" x1="44.6" y1="146.9" x2="57.6" y2="146.9"/>
<line class="st3" x1="80.2" y1="146.9" x2="111.4" y2="146.9"/>
<line class="st3" x1="10.2" y1="229.6" x2="57.6" y2="229.6"/>
<line class="st3" x1="111.4" y1="229.6" x2="128.6" y2="229.6"/>
<line class="st3" x1="10.2" y1="306.1" x2="27.4" y2="306.1"/>
<line class="st3" x1="51.1" y1="306.1" x2="105" y2="306.1"/>
<line class="st3" x1="50.8" y1="371.8" x2="75.6" y2="371.8"/>
<line class="st3" x1="99.3" y1="371.8" x2="143.5" y2="371.8"/>
</svg>
