<?xml version="1.0" encoding="utf-8"?>
<!-- Generator: Adobe Illustrator 26.0.0, SVG Export Plug-In . SVG Version: 6.00 Build 0)  -->
<svg version="1.1" id="Layer_1" xmlns="http://www.w3.org/2000/svg" xmlns:xlink="http://www.w3.org/1999/xlink" x="0px" y="0px"
	 viewBox="0 0 369.6 408.3" style="enable-background:new 0 0 369.6 408.3;" xml:space="preserve">
<style type="text/css">
	.st0{fill:#5AB0BC;stroke:#FFFFFF;stroke-width:8;stroke-miterlimit:10;}
	.st1{fill:#FFFFFF;}
	.st2{fill:#5AB0BC;}
	.st3{fill:none;stroke:#FFFFFF;stroke-width:8;stroke-miterlimit:10;}
</style>
<polygon class="st0" points="22.3,402.6 6.7,404 4.2,387.5 95.1,279.2 113.1,294.4 "/>
<path class="st0" d="M190.3,165.7l18,15.1l0,0l-94,112c-4.2,5-11.6,5.6-16.6,1.5l0,0c-5-4.2-5.6-11.6-1.5-16.6L190.3,165.7
	L190.3,165.7z"/>
<path class="st1" d="M114.1,119.2c-3.3,0-5.9-2.7-5.9-5.9c0-1.4,0.5-2.7,1.4-3.7l88.1-105c2-2.6,5.7-3,8.3-1s3,5.7,1,8.3
	c-0.1,0.1-0.2,0.2-0.2,0.3l-88.1,105C117.5,118.5,115.8,119.2,114.1,119.2L114.1,119.2z"/>
<path class="st2" d="M202.2,5c1.9,0,3.4,1.5,3.4,3.4c0,0.8-0.3,1.6-0.8,2.2l-88.1,105c-1.1,1.5-3.2,1.8-4.7,0.7
	c-1.5-1.1-1.8-3.2-0.7-4.7c0.1-0.1,0.2-0.2,0.2-0.3l88.1-105C200.2,5.4,201.1,5,202.2,5 M202.2,0c-2.5,0-4.8,1.1-6.4,3l-88.1,105
	c-3.1,3.4-2.8,8.7,0.6,11.8s8.7,2.8,11.8-0.6c0.1-0.1,0.2-0.3,0.3-0.4l88.1-105c3-3.5,2.5-8.8-1-11.8l0,0l0,0
	C206.1,0.7,204.2,0,202.2,0L202.2,0z"/>
<path class="st1" d="M273.2,252.7c-3.3,0-5.9-2.7-5.9-5.9c0-1.4,0.5-2.7,1.4-3.7l88.1-105c2-2.6,5.7-3.1,8.2-1.1
	c2.6,2,3.1,5.7,1.1,8.2c-0.1,0.1-0.2,0.3-0.3,0.4l-88.1,105C276.5,252,274.9,252.7,273.2,252.7z"/>
<path class="st2" d="M361.2,138.5L361.2,138.5c1.9,0,3.4,1.5,3.4,3.4c0,0.8-0.3,1.6-0.8,2.2l-88,104.9c-0.6,0.8-1.6,1.2-2.6,1.2
	c-1.9,0-3.4-1.5-3.4-3.4c0-0.8,0.3-1.6,0.8-2.2l88.1-105C359.3,138.9,360.2,138.4,361.2,138.5 M361.2,133.4c-2.5,0-4.8,1.1-6.4,3
	l-88.1,105c-3.1,3.4-2.8,8.7,0.6,11.8s8.7,2.8,11.8-0.6c0.1-0.1,0.2-0.3,0.4-0.4l88.1-105c3-3.5,2.5-8.8-1-11.8l0,0l0,0
	C365.2,134.1,363.3,133.4,361.2,133.4L361.2,133.4z"/>
<rect x="174.4" y="30.5" transform="matrix(0.6436 -0.7654 0.7654 0.6436 -12.8402 229.7537)" class="st2" width="131.8" height="196.3"/>
<line class="st3" x1="232.3" y1="35.9" x2="147.8" y2="137"/>
<line class="st3" x1="328.7" y1="117" x2="243.6" y2="217.6"/>
</svg>
