<?xml version="1.0" encoding="utf-8"?>
<!-- Generator: Adobe Illustrator 26.0.0, SVG Export Plug-In . SVG Version: 6.00 Build 0)  -->
<svg version="1.1" id="Layer_1" xmlns="http://www.w3.org/2000/svg" xmlns:xlink="http://www.w3.org/1999/xlink" x="0px" y="0px"
	 viewBox="0 0 500 500" style="enable-background:new 0 0 500 500;" xml:space="preserve">
<style type="text/css">
	.st0{fill:#5AB0BC;stroke:#FFFFFF;stroke-width:8;stroke-miterlimit:10;}
	.st1{fill:#5AB0BC;stroke:#FFFFFF;stroke-width:10;stroke-linejoin:round;stroke-miterlimit:10;}
</style>
<ellipse class="st0" cx="71.2" cy="223" rx="28.9" ry="24"/>
<ellipse class="st0" cx="439.7" cy="223" rx="28.9" ry="24"/>
<path class="st0" d="M429,238.6H81.9c-14.5,0-26.3,11.8-26.3,26.3v99h399.7v-99C455.3,250.4,443.5,238.6,429,238.6z"/>
<path class="st0" d="M363.4,94.8H147.6c-18.1,0-33.9,12.1-38.6,29.6L78.3,238.6h354.4l-30.7-114.2
	C397.2,106.9,381.4,94.8,363.4,94.8z"/>
<path class="st0" d="M96.5,410.4H75.1c-9.1,0-16.4-7.3-16.4-16.4v-30H113v30C113,403,105.6,410.4,96.5,410.4z"/>
<path class="st0" d="M438.9,410.4h-21.5c-9.1,0-16.4-7.3-16.4-16.4v-30h54.3v30C455.3,403,448,410.4,438.9,410.4z"/>
<path class="st1" d="M76.6,285.5c-5.1,19.1,21.6,31.2,36.4,33.3c21.8,3.1,31.9-6.9,31.9-16.6C144.8,278.6,80.3,271.3,76.6,285.5z"/>
<path class="st1" d="M423.4,285.5c5.1,19.1-21.6,31.2-36.4,33.3c-21.8,3.1-31.9-6.9-31.9-16.6C355.2,278.6,419.7,271.3,423.4,285.5z
	"/>
</svg>
