<?xml version="1.0" encoding="utf-8"?>
<!-- Generator: Adobe Illustrator 26.0.0, SVG Export Plug-In . SVG Version: 6.00 Build 0)  -->
<svg version="1.1" id="Layer_1" xmlns="http://www.w3.org/2000/svg" xmlns:xlink="http://www.w3.org/1999/xlink" x="0px" y="0px"
	 viewBox="0 0 500 500" style="enable-background:new 0 0 500 500;" xml:space="preserve">
<style type="text/css">
	.st0{fill:#FFFFFF;}
	.st1{fill:#5AB0BC;stroke:#FFFFFF;stroke-width:8;stroke-miterlimit:10;}
	.st2{fill:#5AB0BC;stroke:#FFFFFF;stroke-width:7;stroke-miterlimit:10;}
	.st3{fill:none;stroke:#FFFFFF;stroke-width:7.458;stroke-linecap:round;stroke-miterlimit:10;}
</style>
<path class="st0" d="M131.4,448.3c-4.9,0-8.9-4-8.9-8.9V77.7c0-4.9,4-8.9,8.9-8.9h237.3c4.9,0,8.9,4,8.9,8.9v361.7
	c0,4.9-4,8.9-8.9,8.9L131.4,448.3L131.4,448.3z"/>
<path class="st1" d="M368.7,73.6H131.4c-7,0-12.6,5.6-12.6,12.6v361.7c0,7,5.6,12.6,12.6,12.6h237.3c7,0,12.6-5.6,12.6-12.6V86.2
	C381.3,79.2,375.6,73.6,368.7,73.6L368.7,73.6z"/>
<path class="st2" d="M212.9,95.4c-1.6,0-3-1.8-3-4V68.8h24.9v-3.7c0-7.3,5-13.3,11.1-13.3h8c6.1,0,11.1,6,11.1,13.3v3.7h25v22.7
	c0,2.2-1.4,4-3,4C287.1,95.4,212.9,95.4,212.9,95.4z"/>
<g>
	<line class="st3" x1="167.6" y1="227.3" x2="221.1" y2="227.3"/>
</g>
<line class="st3" x1="167.6" y1="338.8" x2="221.1" y2="338.8"/>
<polyline class="st3" points="277.5,208.2 293.8,234.8 331,179.1 "/>
<polyline class="st3" points="277.5,321.9 293.8,348.5 331,292.8 "/>
</svg>
