<svg id="Layer_1" data-name="Layer 1" xmlns="http://www.w3.org/2000/svg" xmlns:xlink="http://www.w3.org/1999/xlink" viewBox="0 0 1688.63 1674.84"><defs><style>.cls-1{fill:none;}.cls-2{clip-path:url(#clip-path);}.cls-3{opacity:0.67;}.cls-4{isolation:isolate;}.cls-5{opacity:0.75;}.cls-6{fill:#eff;}</style><clipPath id="clip-path" transform="translate(124.32 109)"><rect class="cls-1" width="1440" height="830"/></clipPath></defs><g class="cls-2"><g class="cls-3"><image class="cls-4" width="712" height="712" transform="scale(2.37 2.35)" xlink:href="%D1%82%D0%B5%D0%BB11.png"/></g><g class="cls-5"><path class="cls-6" d="M457.87,729.6a43.34,43.34,0,0,1-43.3-43.3V459.48a43.34,43.34,0,0,1,43.3-43.3H950.61a43.34,43.34,0,0,1,43.3,43.3V686.3a43.34,43.34,0,0,1-43.3,43.3Z" transform="translate(124.32 109)"/><path d="M950.59,417.36a42.17,42.17,0,0,1,42.12,42.12V686.3a42.17,42.17,0,0,1-42.12,42.12H457.87a42.17,42.17,0,0,1-42.12-42.12V459.48a42.17,42.17,0,0,1,42.12-42.12H950.59m0-2.36H457.87a44.48,44.48,0,0,0-44.48,44.48V686.3a44.48,44.48,0,0,0,44.48,44.48H950.61a44.48,44.48,0,0,0,44.48-44.48V459.48A44.5,44.5,0,0,0,950.59,415Z" transform="translate(124.32 109)"/></g><path d="M498.22,551.19l-3.82,10.48h-2.76c-.28-2.34-.54-4.84-.76-7.55s-.31-5.21-.31-7.55h5.17a17.11,17.11,0,0,0,1.91-3,28.6,28.6,0,0,0,2-5.12,55.33,55.33,0,0,0,1.63-7.48,66.77,66.77,0,0,0,.68-10.12,15,15,0,0,1-2.85-1,11.7,11.7,0,0,1-2.38-1.42v-2.69h33.62v2.69a11.38,11.38,0,0,1-4.67,1.7v26.4h6.58c.05,2.34,0,4.84-.24,7.55s-.5,5.21-.8,7.55h-2.76l-3.82-10.48Zm8.92-30.79a70.44,70.44,0,0,1-.64,10.22,54.31,54.31,0,0,1-1.56,7.5,33.8,33.8,0,0,1-1.91,5.21c-.66,1.37-1.23,2.45-1.7,3.26h14.16V520.4Z" transform="translate(124.32 109)"/><path d="M571.56,540.86a9.22,9.22,0,0,1-1.2,4.84A9.48,9.48,0,0,1,567,549a15.37,15.37,0,0,1-5,1.86,29.88,29.88,0,0,1-6.11.59c-1.51,0-2.81,0-3.89,0s-2-.07-2.83-.12-1.51-.09-2.08-.09-1.16,0-1.68,0h-10v-2.69a19.58,19.58,0,0,1,4.67-1.7V520.22a13.76,13.76,0,0,1-4.67-1.7v-2.69H545c2.27,0,4.27-.05,6-.14s3.49-.14,5.24-.14c4.48,0,7.9.64,10.22,1.86S570,520.85,570,524a6.21,6.21,0,0,1-.73,3,7.92,7.92,0,0,1-2,2.34,12,12,0,0,1-2.71,1.63,14.7,14.7,0,0,1-3,.92,13.81,13.81,0,0,1,3.78.78,10.32,10.32,0,0,1,3.19,1.77,8.56,8.56,0,0,1,2.19,2.74A8.08,8.08,0,0,1,571.56,540.86Zm-21.24-8.92,6.25-.71a7.52,7.52,0,0,0,2.17-2.29A6.94,6.94,0,0,0,559.8,525q0-5.44-6.25-5.45c-.52,0-1.06,0-1.6.05a6.68,6.68,0,0,0-1.63.24v12.1Zm0,15.22a12.74,12.74,0,0,0,2.17.24c.78,0,1.46.05,2,.05a6.5,6.5,0,0,0,4.81-1.63,6.42,6.42,0,0,0,1.63-4.74,5.57,5.57,0,0,0-1.86-4.55,7.6,7.6,0,0,0-4.91-1.53h-3.82v12.18h0Z" transform="translate(124.32 109)"/><path d="M576,515.8h18.83v2.69a18.65,18.65,0,0,1-1.82.85c-.68.28-1.51.57-2.45.85v16l-.78,6.61h.35l2.76-5.31,13-21.66h13.38v2.69a14.64,14.64,0,0,1-4.67,1.7v26.59c.9.24,1.75.5,2.55.76a9.65,9.65,0,0,1,2.12,1v2.69H600.41v-2.69a16.57,16.57,0,0,1,4.25-1.7V530.06l.71-5.62H605l-2.69,5.31L589.52,551.2H576v-2.69a22.39,22.39,0,0,1,2.34-1c.75-.26,1.53-.52,2.34-.76V520.19a11.38,11.38,0,0,1-4.67-1.7V515.8Z" transform="translate(124.32 109)"/><path d="M661.67,515.8h14.79v2.69a14.83,14.83,0,0,1-4,1.7q-2.26,3-4.37,5.52c-1.39,1.68-2.85,3.42-4.34,5.24l2.27,3.14,2.9,4c1,1.42,2.12,2.88,3.3,4.37s2.29,2.95,3.42,4.37l2.55,1.7v2.69h-10l-2-1.63a40.55,40.55,0,0,1-2.48-3.49c-.85-1.34-1.68-2.69-2.48-4.08s-1.53-2.67-2.17-3.89-1.16-2.24-1.53-3h-3.11v11.75a18.15,18.15,0,0,1,4.25,1.7v2.69H641.2v-2.69c.66-.33,1.3-.64,1.93-.92s1.32-.54,2-.78V534.65l-3.54.71c-.38.66-.85,1.58-1.42,2.78s-1.23,2.5-2,3.85-1.56,2.74-2.36,4.11a25.63,25.63,0,0,1-2.5,3.47l-2.12,1.63h-9.91v-2.69l3-1.7c1.18-1.37,2.31-2.81,3.4-4.27s2.1-2.9,3-4.27,1.82-2.67,2.62-3.85,1.53-2.19,2.19-3.07c-1.7-1.79-3.26-3.59-4.62-5.33s-2.85-3.7-4.34-5.83a9.32,9.32,0,0,1-3.54-1.7V515.8h14.79v2.69a12.42,12.42,0,0,1-3.54,1.7c.61,1.13,1.2,2.17,1.77,3.07s1.13,1.77,1.72,2.64,1.2,1.72,1.84,2.6,1.37,1.89,2.24,3h3.33V520.19a8.06,8.06,0,0,1-2-.71,11.53,11.53,0,0,1-1.58-1V515.8h16.28v2.69a10.26,10.26,0,0,1-1.44,1,7.64,7.64,0,0,1-2,.71v11.75l3.61-.71c.85-1.13,1.56-2.15,2.17-3s1.16-1.7,1.7-2.52,1.09-1.68,1.6-2.52,1.11-1.84,1.77-3c-.66-.24-1.27-.47-1.84-.71a8.31,8.31,0,0,1-1.7-1v-2.67h0Z" transform="translate(124.32 109)"/><path d="M680.21,515.8H699v2.69a18.65,18.65,0,0,1-1.82.85c-.68.28-1.51.57-2.45.85v16l-.78,6.61h.35l2.76-5.31,12.95-21.66h13.38v2.69a14.64,14.64,0,0,1-4.67,1.7v26.59c.9.24,1.75.5,2.55.76a9.65,9.65,0,0,1,2.12,1v2.69H704.6v-2.69a16.57,16.57,0,0,1,4.25-1.7V530.06l.71-5.62h-.35l-2.69,5.31L693.71,551.2H680.19v-2.69a22.39,22.39,0,0,1,2.34-1c.75-.26,1.53-.52,2.34-.76V520.19a11.38,11.38,0,0,1-4.67-1.7V515.8Z" transform="translate(124.32 109)"/><path d="M741.09,551.19H727V548.5a23.11,23.11,0,0,1,4.67-1.7l1.42-25.88a20.92,20.92,0,0,1-2.62-1.2c-.76-.42-1.44-.83-2.05-1.2v-2.69h17.63L752.14,533l1.34,4.88h.21l1.49-5,6.23-17.06h17.84v2.69a11.47,11.47,0,0,1-2,1,16.68,16.68,0,0,1-2.62.71L776,546.8a15.46,15.46,0,0,1,4.67,1.7v2.69H761.84V548.5c.47-.24,1-.5,1.7-.78s1.51-.59,2.55-.92l-1.42-25.55h-.57l-10.76,29.94H749.8l-11.33-29.94h-.57l-1.06,25.55a23.86,23.86,0,0,1,4.25,1.7v2.69Z" transform="translate(124.32 109)"/><path d="M784.34,533.5a21.6,21.6,0,0,1,1.3-7.76,16.09,16.09,0,0,1,3.75-5.83,16.36,16.36,0,0,1,5.9-3.68,22.66,22.66,0,0,1,7.86-1.27,24.12,24.12,0,0,1,8.52,1.37,15.74,15.74,0,0,1,5.88,3.82A14.53,14.53,0,0,1,820.9,526a25.18,25.18,0,0,1,1.06,7.48,22.2,22.2,0,0,1-1.27,7.76A15.79,15.79,0,0,1,817,547.1a16.31,16.31,0,0,1-6,3.68,22.94,22.94,0,0,1-7.88,1.27,23.37,23.37,0,0,1-8.35-1.37,16.07,16.07,0,0,1-5.88-3.82,15.36,15.36,0,0,1-3.47-5.88A24.37,24.37,0,0,1,784.34,533.5Zm11,0a37.52,37.52,0,0,0,.4,5.83,13.77,13.77,0,0,0,1.37,4.51,7.21,7.21,0,0,0,2.69,2.86,8.44,8.44,0,0,0,4.39,1A5.48,5.48,0,0,0,807,547a6.1,6.1,0,0,0,2.19-2.41,14.12,14.12,0,0,0,1.37-4.39,45.6,45.6,0,0,0,.07-12.56,14.38,14.38,0,0,0-1.34-4.46,7.44,7.44,0,0,0-2.57-2.86,7.61,7.61,0,0,0-4.11-1,6.46,6.46,0,0,0-3.19.76,6,6,0,0,0-2.27,2.41,13.37,13.37,0,0,0-1.37,4.39A39.23,39.23,0,0,0,795.31,533.5Z" transform="translate(124.32 109)"/><path d="M856.47,515.8c-.05.9-.14,1.93-.24,3.11s-.26,2.41-.42,3.68-.38,2.52-.59,3.75-.47,2.31-.71,3.26h-2.9l-3.11-9.77h-7.41v27a37.8,37.8,0,0,1,6.37,1.7v2.69H826.22V548.5a10.9,10.9,0,0,1,2.34-1.06c.75-.24,1.53-.45,2.34-.64V520.14a13.34,13.34,0,0,1-4.67-1.63v-2.69h30.25v0Z" transform="translate(124.32 109)"/><path d="M858.93,533.5a21.6,21.6,0,0,1,1.3-7.76,16.09,16.09,0,0,1,3.75-5.83,16.36,16.36,0,0,1,5.9-3.68,22.66,22.66,0,0,1,7.86-1.27,24.08,24.08,0,0,1,8.52,1.37,15.74,15.74,0,0,1,5.88,3.82,14.53,14.53,0,0,1,3.35,5.88,25.18,25.18,0,0,1,1.06,7.48,22.2,22.2,0,0,1-1.27,7.76,15.79,15.79,0,0,1-3.73,5.83,16.31,16.31,0,0,1-5.95,3.68,22.94,22.94,0,0,1-7.88,1.27,23.37,23.37,0,0,1-8.35-1.37,16.07,16.07,0,0,1-5.88-3.82A15.36,15.36,0,0,1,860,541,25,25,0,0,1,858.93,533.5Zm11,0a37.52,37.52,0,0,0,.4,5.83,13.77,13.77,0,0,0,1.37,4.51,7.21,7.21,0,0,0,2.69,2.86,8.44,8.44,0,0,0,4.39,1,5.48,5.48,0,0,0,2.83-.76,6.1,6.1,0,0,0,2.19-2.41,14.12,14.12,0,0,0,1.37-4.39,45.6,45.6,0,0,0,.07-12.56,14.38,14.38,0,0,0-1.34-4.46,7.44,7.44,0,0,0-2.57-2.86,7.61,7.61,0,0,0-4.11-1A6.46,6.46,0,0,0,874,520a6,6,0,0,0-2.27,2.41,13.37,13.37,0,0,0-1.37,4.39A41.4,41.4,0,0,0,869.9,533.5Z" transform="translate(124.32 109)"/><path d="M507.64,600.74h18.83v2.69a18.65,18.65,0,0,1-1.82.85c-.69.28-1.51.57-2.45.85v16l-.78,6.61h.35l2.76-5.31,13-21.66h13.38v2.69a14.64,14.64,0,0,1-4.67,1.7v26.59c.9.24,1.75.5,2.55.76a9.65,9.65,0,0,1,2.12,1v2.69H532v-2.69a16.57,16.57,0,0,1,4.25-1.7V615l.71-5.62h-.35L534,614.69l-12.81,21.45H507.62v-2.69a22.39,22.39,0,0,1,2.34-1c.76-.26,1.53-.52,2.34-.76V605.13a11.38,11.38,0,0,1-4.67-1.7v-2.69Z" transform="translate(124.32 109)"/><path d="M568.51,636.14H554.42v-2.69a23.11,23.11,0,0,1,4.67-1.7l1.42-25.88a20.92,20.92,0,0,1-2.62-1.2c-.76-.42-1.44-.83-2-1.2v-2.69h17.63l6.09,17.13,1.34,4.88h.21l1.49-5,6.23-17.06h17.84v2.69a11.47,11.47,0,0,1-2,1,16.68,16.68,0,0,1-2.62.71l1.42,26.59a15.46,15.46,0,0,1,4.67,1.7v2.69H589.26v-2.69c.47-.24,1-.5,1.7-.78s1.51-.59,2.55-.92l-1.42-25.55h-.57l-10.76,29.94h-3.54L565.89,606.2h-.57l-1.06,25.55a23.86,23.86,0,0,1,4.25,1.7v2.69Z" transform="translate(124.32 109)"/><path d="M612.26,605.13a10.76,10.76,0,0,1-2-.71c-.59-.28-1.18-.61-1.82-1v-2.69H627.1v2.62a15.69,15.69,0,0,1-4,1.77l7.15,17.81,1.2,4.55h.14l1.13-4.62,5.52-17.74a9.83,9.83,0,0,1-3.89-1.7v-2.69H648v2.69a14.21,14.21,0,0,1-4,1.7l-11.54,31a46.37,46.37,0,0,1-3.4,7.39,23.26,23.26,0,0,1-3.4,4.58,10.28,10.28,0,0,1-3.4,2.36,15.28,15.28,0,0,1-3.4.9,7,7,0,0,1-1.27-1.58,13.39,13.39,0,0,1-1-2,20.06,20.06,0,0,1-.71-2.24,11.69,11.69,0,0,1-.35-2.12l.92-1.7h8.64a15.73,15.73,0,0,0,1.11-2.12c.31-.76.66-1.89,1.09-3.4Z" transform="translate(124.32 109)"/><path d="M649,636.14v-2.69a16,16,0,0,1,4.67-1.7V605.16a16.15,16.15,0,0,1-2.55-.71,14.75,14.75,0,0,1-2.12-1v-2.69h18v2.69a7.6,7.6,0,0,1-1.37.92,15.55,15.55,0,0,1-1.82.78v27h9.91v-27a15.32,15.32,0,0,1-1.86-.71,9.25,9.25,0,0,1-1.75-1v-2.69h17v2.69a8.19,8.19,0,0,1-3.19,1.7v27h9.91v-27a9,9,0,0,1-3.19-1.7v-2.69h18.05v2.69a12.39,12.39,0,0,1-2.12,1c-.76.26-1.6.52-2.55.76v27H711c0,2.27-.21,4.7-.5,7.29s-.59,5-.92,7.22h-2.76L703,636.19H649v-.05Z" transform="translate(124.32 109)"/><path d="M746.47,630.19a9,9,0,0,1-1.82,2.43,12.42,12.42,0,0,1-3,2.19,19.07,19.07,0,0,1-4.18,1.56,20.9,20.9,0,0,1-5.12.59,21.63,21.63,0,0,1-7.79-1.32,14.78,14.78,0,0,1-5.66-3.75,16,16,0,0,1-3.44-5.83,23.39,23.39,0,0,1-1.16-7.64q0-9.06,4.74-13.8t13.17-4.74a22.35,22.35,0,0,1,6.75,1,11.78,11.78,0,0,1,5.24,3.26,12.56,12.56,0,0,1,2.9,6,24.09,24.09,0,0,1-.09,9H725.24c0,3.73,1,6.7,2.85,8.92s4.6,3.33,8.26,3.33a18.14,18.14,0,0,0,4.86-.71,11.1,11.1,0,0,0,3.92-1.84Zm-14.63-26.26a6,6,0,0,0-2.5.5,4.46,4.46,0,0,0-1.91,1.82,11.5,11.5,0,0,0-1.3,3.54,37.05,37.05,0,0,0-.71,5.62h11.33q.5-5.52-.64-8.49A4.19,4.19,0,0,0,731.84,603.93Z" transform="translate(124.32 109)"/><path d="M782.36,630.4a7,7,0,0,1-1.63,2.57,11.91,11.91,0,0,1-2.74,2.08,13.87,13.87,0,0,1-3.61,1.42,17.67,17.67,0,0,1-4.22.5,22,22,0,0,1-8-1.32,14.29,14.29,0,0,1-5.57-3.75,15.61,15.61,0,0,1-3.26-5.88,25.52,25.52,0,0,1-1.06-7.6c0-6,1.63-10.59,4.91-13.76s7.93-4.79,14-4.79a25.4,25.4,0,0,1,6.37.76,23.14,23.14,0,0,1,4.81,1.75c-.09.8-.24,1.68-.4,2.67s-.35,1.93-.57,2.9-.45,1.91-.73,2.83a18.31,18.31,0,0,1-.85,2.29h-3.47l-3-8.42a4.24,4.24,0,0,0-1.06-.54,5.92,5.92,0,0,0-1.7-.19,7.18,7.18,0,0,0-3.19.68,5.69,5.69,0,0,0-2.31,2.31,12.87,12.87,0,0,0-1.42,4.32,40.1,40.1,0,0,0-.45,6.65,21.06,21.06,0,0,0,.64,5.36,12.74,12.74,0,0,0,1.93,4.25,9.12,9.12,0,0,0,3.3,2.83,10.14,10.14,0,0,0,4.67,1,12.07,12.07,0,0,0,4.32-.71,11.87,11.87,0,0,0,3.11-1.7Z" transform="translate(124.32 109)"/><path d="M813.76,636.14h-20.1v-2.69a13.75,13.75,0,0,1,2.41-1c.9-.28,1.75-.52,2.55-.71v-27h-5.17l-3.11,9.77h-3c-.24-1-.47-2.1-.68-3.33s-.4-2.45-.54-3.73-.28-2.45-.4-3.63a31,31,0,0,1-.17-3.11h36.24c0,.85-.05,1.86-.14,3s-.24,2.41-.4,3.63-.35,2.5-.57,3.75-.45,2.36-.68,3.35h-3L814,604.75h-5.17v27q1.63.42,2.76.78a12.7,12.7,0,0,1,2.19.92v2.71h0Z" transform="translate(124.32 109)"/><path d="M861.05,625.8a9.22,9.22,0,0,1-1.2,4.84,9.48,9.48,0,0,1-3.33,3.3,15.37,15.37,0,0,1-5,1.86,29.88,29.88,0,0,1-6.11.59c-1.51,0-2.81,0-3.89,0s-2-.07-2.83-.12-1.51-.09-2.08-.09-1.16,0-1.68,0H825v-2.69a19.58,19.58,0,0,1,4.67-1.7V605.16a13.76,13.76,0,0,1-4.67-1.7v-2.69h9.56c2.27,0,4.27,0,6-.14s3.49-.14,5.24-.14c4.48,0,7.9.64,10.22,1.86s3.49,3.44,3.49,6.56a6.21,6.21,0,0,1-.73,3,7.92,7.92,0,0,1-2,2.34,12,12,0,0,1-2.71,1.63,14.7,14.7,0,0,1-3,.92,13.81,13.81,0,0,1,3.78.78,10.32,10.32,0,0,1,3.19,1.77,8.56,8.56,0,0,1,2.19,2.74A7.77,7.77,0,0,1,861.05,625.8Zm-21.24-8.92,6.25-.71a7.4,7.4,0,0,0,2.17-2.29,6.94,6.94,0,0,0,1.06-3.94q0-5.45-6.25-5.45c-.52,0-1.06,0-1.6,0a6.68,6.68,0,0,0-1.63.24v12.1Zm0,15.22a12.74,12.74,0,0,0,2.17.24c.78,0,1.46,0,2,0a6.5,6.5,0,0,0,4.81-1.63,6.42,6.42,0,0,0,1.63-4.74,5.57,5.57,0,0,0-1.86-4.55,7.6,7.6,0,0,0-4.91-1.53h-3.82v12.18h0Z" transform="translate(124.32 109)"/><path d="M896.73,625.87c0,1,0,1.93,0,2.69s.07,1.56.17,2.41l4.88.71v2.48a14.13,14.13,0,0,1-2.29.85c-1,.28-2,.57-3,.83s-2.12.47-3.14.64-2,.31-2.76.4h-2.41a10.35,10.35,0,0,1-.85-3.26c-.09-1.09-.17-2.41-.21-4h-.35a9,9,0,0,1-1.2,2.71,9.38,9.38,0,0,1-2.17,2.34,11.44,11.44,0,0,1-3.07,1.68,11.75,11.75,0,0,1-4,.64,12.79,12.79,0,0,1-4.32-.71,10.87,10.87,0,0,1-3.47-2,9.1,9.1,0,0,1-2.34-3.07,9.34,9.34,0,0,1-.85-4.06,10.29,10.29,0,0,1,1.2-5.24,8.92,8.92,0,0,1,3.78-3.35,23.21,23.21,0,0,1,6.65-2,96.26,96.26,0,0,1,9.89-.92q.57-6.09-.5-8.92t-4.6-2.83a11.15,11.15,0,0,0-4,.71l-3.33,8.49h-3.11a15.25,15.25,0,0,1-1.09-2q-.53-1.1-1-2.34a22.56,22.56,0,0,1-.78-2.5,19.57,19.57,0,0,1-.47-2.48A21.45,21.45,0,0,1,875,601a36.85,36.85,0,0,1,9-1.06,20.38,20.38,0,0,1,6.58.9,9.82,9.82,0,0,1,4,2.41,8.19,8.19,0,0,1,2,3.56,16.34,16.34,0,0,1,.57,4.39c0,2.83-.07,5.4-.19,7.67S896.73,623.47,896.73,625.87Zm-15.93,5.45a5.33,5.33,0,0,0,2.55-.57,7.1,7.1,0,0,0,1.79-1.34,5.61,5.61,0,0,0,1.13-1.7,15.87,15.87,0,0,0,.61-1.63V619a40.91,40.91,0,0,0-5.45.42,8.4,8.4,0,0,0-3.33,1.18,4.25,4.25,0,0,0-1.68,2,8.62,8.62,0,0,0-.45,3,6.23,6.23,0,0,0,1.27,4.18A4.46,4.46,0,0,0,880.8,631.32Z" transform="translate(124.32 109)"/></g></svg>