<?xml version="1.0" encoding="utf-8"?>
<!-- Generator: Adobe Illustrator 25.2.3, SVG Export Plug-In . SVG Version: 6.00 Build 0)  -->
<svg version="1.1" id="Layer_1" xmlns="http://www.w3.org/2000/svg" xmlns:xlink="http://www.w3.org/1999/xlink" x="0px" y="0px"
	 viewBox="0 0 1440 830" enable-background="new 0 0 1440 830" xml:space="preserve">
<g>
	<defs>
		<rect id="SVGID_1_" width="1440" height="830"/>
	</defs>
	<clipPath id="SVGID_2_">
		<use xlink:href="#SVGID_1_"  overflow="visible"/>
	</clipPath>
	<g opacity="0.67" clip-path="url(#SVGID_2_)">
		
			<image overflow="visible" enable-background="new    " width="712" height="712" xlink:href="97AEDC1A.png"  transform="matrix(2.3717 0 0 2.3523 -124.3161 -109)">
		</image>
	</g>
	<g clip-path="url(#SVGID_2_)">
		<g opacity="0.75">
			<path fill="#EEFFFF" d="M457.9,729.6c-23.9,0-43.3-19.4-43.3-43.3V459.5c0-23.9,19.4-43.3,43.3-43.3h492.7
				c23.9,0,43.3,19.4,43.3,43.3v226.8c0,23.9-19.4,43.3-43.3,43.3H457.9z"/>
			<path d="M950.6,417.4c23.2,0,42.1,18.9,42.1,42.1v226.8c0,23.2-18.9,42.1-42.1,42.1H457.9c-23.2,0-42.1-18.9-42.1-42.1V459.5
				c0-23.2,18.9-42.1,42.1-42.1L950.6,417.4 M950.6,415H457.9c-24.6,0-44.5,19.9-44.5,44.5v226.8c0,24.6,19.9,44.5,44.5,44.5h492.7
				c24.6,0,44.5-19.9,44.5-44.5V459.5C995.1,434.9,975.2,415,950.6,415L950.6,415z"/>
		</g>
		<g>
			<path d="M498.2,551.2l-3.8,10.5h-2.8c-0.3-2.3-0.5-4.8-0.8-7.5c-0.2-2.7-0.3-5.2-0.3-7.5h5.2c0.6-0.7,1.2-1.7,1.9-3
				c0.7-1.3,1.4-3,2-5.1s1.2-4.6,1.6-7.5c0.4-2.9,0.7-6.3,0.7-10.1c-1-0.2-2-0.6-2.9-1c-0.9-0.4-1.7-0.9-2.4-1.4v-2.7h33.6v2.7
				c-1.3,0.8-2.8,1.4-4.7,1.7v26.4h6.6c0.1,2.3-0.1,4.8-0.2,7.5c-0.2,2.7-0.5,5.2-0.8,7.5h-2.8l-3.8-10.5L498.2,551.2L498.2,551.2z
				 M507.1,520.4c0,3.9-0.2,7.3-0.6,10.2c-0.4,2.9-0.9,5.4-1.6,7.5c-0.6,2.1-1.3,3.8-1.9,5.2c-0.7,1.4-1.2,2.5-1.7,3.3h14.2v-26.2
				H507.1L507.1,520.4z"/>
			<path d="M571.6,540.9c0,1.9-0.4,3.5-1.2,4.8c-0.8,1.3-1.9,2.5-3.3,3.3c-1.4,0.8-3.1,1.5-5,1.9c-1.9,0.4-4,0.6-6.1,0.6
				c-1.5,0-2.8,0-3.9,0c-1.1,0-2-0.1-2.8-0.1s-1.5-0.1-2.1-0.1c-0.6,0-1.2,0-1.7,0h-10v-2.7c1.5-0.8,3-1.3,4.7-1.7v-26.6
				c-1.8-0.3-3.4-0.9-4.7-1.7v-2.7h9.6c2.3,0,4.3,0,6-0.1s3.5-0.1,5.2-0.1c4.5,0,7.9,0.6,10.2,1.9c2.3,1.3,3.5,3.4,3.5,6.6
				c0,1.1-0.2,2.2-0.7,3c-0.5,0.9-1.2,1.7-2,2.3c-0.8,0.7-1.7,1.2-2.7,1.6c-1,0.4-2,0.7-3,0.9c1.3,0.1,2.6,0.3,3.8,0.8
				c1.2,0.4,2.3,1,3.2,1.8s1.6,1.7,2.2,2.7C571.3,538.2,571.6,539.4,571.6,540.9z M550.3,531.9l6.3-0.7c0.8-0.5,1.5-1.3,2.2-2.3
				c0.7-1.1,1.1-2.4,1.1-3.9c0-3.6-2.1-5.5-6.3-5.5c-0.5,0-1.1,0-1.6,0c-0.6,0-1.1,0.1-1.6,0.2V531.9L550.3,531.9z M550.3,547.2
				c0.7,0.1,1.4,0.2,2.2,0.2c0.8,0,1.5,0,2,0c2.1,0,3.7-0.5,4.8-1.6c1.1-1.1,1.6-2.7,1.6-4.7c0-2-0.6-3.5-1.9-4.5
				c-1.3-1-2.9-1.5-4.9-1.5h-3.8L550.3,547.2L550.3,547.2L550.3,547.2z"/>
			<path d="M576,515.8h18.8v2.7c-0.5,0.3-1.1,0.6-1.8,0.8c-0.7,0.3-1.5,0.6-2.4,0.8v16l-0.8,6.6h0.4l2.8-5.3l12.9-21.7h13.4v2.7
				c-1.5,0.8-3.1,1.4-4.7,1.7v26.6c0.9,0.2,1.8,0.5,2.6,0.8s1.5,0.6,2.1,1v2.7h-18.8v-2.7c1.3-0.8,2.7-1.3,4.3-1.7v-16.8l0.7-5.6
				H605l-2.7,5.3l-12.8,21.5H576v-2.7c0.8-0.4,1.6-0.7,2.3-1c0.8-0.3,1.5-0.5,2.3-0.8v-26.6c-1.8-0.3-3.4-0.8-4.7-1.7L576,515.8
				L576,515.8L576,515.8z"/>
			<path d="M661.7,515.8h14.8v2.7c-0.8,0.6-2.1,1.1-4,1.7c-1.5,2-3,3.8-4.4,5.5c-1.4,1.7-2.9,3.4-4.3,5.2c0.6,0.8,1.4,1.9,2.3,3.1
				c0.9,1.2,1.9,2.5,2.9,4c1,1.4,2.1,2.9,3.3,4.4c1.2,1.5,2.3,3,3.4,4.4l2.6,1.7v2.7h-10.1l-2-1.6c-0.8-1-1.6-2.2-2.5-3.5
				c-0.9-1.3-1.7-2.7-2.5-4.1c-0.8-1.4-1.5-2.7-2.2-3.9s-1.2-2.2-1.5-3h-3.1v11.8c1.5,0.4,2.9,0.9,4.3,1.7v2.7h-17.4v-2.7
				c0.7-0.3,1.3-0.6,1.9-0.9c0.6-0.3,1.3-0.5,2-0.8v-12.2l-3.5,0.7c-0.4,0.7-0.9,1.6-1.4,2.8c-0.6,1.2-1.2,2.5-2,3.8
				c-0.8,1.4-1.6,2.7-2.4,4.1c-0.8,1.4-1.7,2.5-2.5,3.5l-2.1,1.6h-9.9v-2.7l3-1.7c1.2-1.4,2.3-2.8,3.4-4.3c1.1-1.5,2.1-2.9,3-4.3
				s1.8-2.7,2.6-3.8s1.5-2.2,2.2-3.1c-1.7-1.8-3.3-3.6-4.6-5.3c-1.4-1.8-2.9-3.7-4.3-5.8c-1.2-0.3-2.4-0.8-3.5-1.7v-2.7h14.8v2.7
				c-0.9,0.7-2.1,1.2-3.5,1.7c0.6,1.1,1.2,2.2,1.8,3.1s1.1,1.8,1.7,2.6c0.6,0.8,1.2,1.7,1.8,2.6s1.4,1.9,2.2,3h3.3v-11.3
				c-0.8-0.2-1.5-0.4-2-0.7c-0.5-0.3-1.1-0.6-1.6-1v-2.7h16.3v2.7c-0.5,0.4-0.9,0.7-1.4,1c-0.5,0.3-1.2,0.5-2,0.7v11.8l3.6-0.7
				c0.9-1.1,1.6-2.2,2.2-3c0.6-0.8,1.2-1.7,1.7-2.5s1.1-1.7,1.6-2.5c0.5-0.8,1.1-1.8,1.8-3c-0.7-0.2-1.3-0.5-1.8-0.7
				c-0.6-0.2-1.1-0.6-1.7-1L661.7,515.8L661.7,515.8L661.7,515.8z"/>
			<path d="M680.2,515.8H699v2.7c-0.5,0.3-1.1,0.6-1.8,0.8c-0.7,0.3-1.5,0.6-2.4,0.8v16l-0.8,6.6h0.4l2.8-5.3l12.9-21.7h13.4v2.7
				c-1.5,0.8-3.1,1.4-4.7,1.7v26.6c0.9,0.2,1.8,0.5,2.6,0.8s1.5,0.6,2.1,1v2.7h-18.8v-2.7c1.3-0.8,2.7-1.3,4.3-1.7v-16.8l0.7-5.6
				h-0.4l-2.7,5.3l-12.8,21.5h-13.5v-2.7c0.8-0.4,1.6-0.7,2.3-1c0.8-0.3,1.5-0.5,2.3-0.8v-26.6c-1.8-0.3-3.4-0.8-4.7-1.7
				L680.2,515.8L680.2,515.8L680.2,515.8z"/>
			<path d="M741.1,551.2H727v-2.7c1.6-0.8,3.1-1.3,4.7-1.7l1.4-25.9c-1-0.4-1.9-0.8-2.6-1.2s-1.4-0.8-2.1-1.2v-2.7H746l6.1,17.1
				l1.3,4.9h0.2l1.5-5l6.2-17.1h17.8v2.7c-0.6,0.4-1.3,0.7-2.1,1c-0.8,0.3-1.6,0.5-2.6,0.7l1.4,26.6c1.6,0.3,3.1,0.8,4.7,1.7v2.7
				h-18.8v-2.7c0.5-0.2,1-0.5,1.7-0.8s1.5-0.6,2.6-0.9l-1.4-25.5h-0.6l-10.8,29.9h-3.5l-11.3-29.9h-0.6l-1.1,25.5
				c1.7,0.5,3.1,1.1,4.3,1.7L741.1,551.2L741.1,551.2z"/>
			<path d="M784.3,533.5c0-2.9,0.4-5.5,1.3-7.8c0.9-2.3,2.1-4.2,3.8-5.8c1.6-1.6,3.6-2.8,5.9-3.7c2.3-0.8,4.9-1.3,7.9-1.3
				c3.3,0,6.1,0.5,8.5,1.4c2.4,0.9,4.3,2.2,5.9,3.8c1.5,1.6,2.7,3.6,3.4,5.9c0.7,2.3,1.1,4.8,1.1,7.5c0,2.9-0.4,5.5-1.3,7.8
				c-0.9,2.3-2.1,4.2-3.7,5.8c-1.6,1.6-3.6,2.8-5.9,3.7s-5,1.3-7.9,1.3c-3.2,0-6-0.5-8.4-1.4c-2.4-0.9-4.3-2.2-5.9-3.8
				s-2.7-3.6-3.5-5.9C784.7,538.7,784.3,536.2,784.3,533.5z M795.3,533.5c0,2.1,0.1,4.1,0.4,5.8c0.3,1.8,0.7,3.3,1.4,4.5
				c0.7,1.2,1.6,2.2,2.7,2.9c1.1,0.7,2.6,1,4.4,1c1,0,2-0.3,2.8-0.8s1.6-1.3,2.2-2.4c0.6-1.1,1.1-2.6,1.4-4.4s0.5-4,0.5-6.7
				c0-2.2-0.1-4.1-0.4-5.9s-0.7-3.2-1.3-4.5c-0.6-1.2-1.5-2.2-2.6-2.9c-1.1-0.7-2.4-1-4.1-1c-1.2,0-2.3,0.3-3.2,0.8
				s-1.6,1.3-2.3,2.4c-0.6,1.1-1.1,2.6-1.4,4.4C795.5,528.6,795.3,530.8,795.3,533.5z"/>
			<path d="M856.5,515.8c-0.1,0.9-0.1,1.9-0.2,3.1c-0.1,1.2-0.3,2.4-0.4,3.7c-0.2,1.3-0.4,2.5-0.6,3.8c-0.2,1.2-0.5,2.3-0.7,3.3
				h-2.9l-3.1-9.8h-7.4v27c2.7,0.5,4.8,1.1,6.4,1.7v2.7h-21.2v-2.7c0.8-0.5,1.6-0.8,2.3-1.1c0.8-0.2,1.5-0.5,2.3-0.6v-26.7
				c-1.8-0.3-3.3-0.8-4.7-1.6v-2.7L856.5,515.8L856.5,515.8L856.5,515.8z"/>
			<path d="M858.9,533.5c0-2.9,0.4-5.5,1.3-7.8c0.9-2.3,2.1-4.2,3.8-5.8c1.6-1.6,3.6-2.8,5.9-3.7c2.3-0.8,4.9-1.3,7.9-1.3
				c3.3,0,6.1,0.5,8.5,1.4c2.4,0.9,4.3,2.2,5.9,3.8c1.5,1.6,2.7,3.6,3.4,5.9c0.7,2.3,1.1,4.8,1.1,7.5c0,2.9-0.4,5.5-1.3,7.8
				s-2.1,4.2-3.7,5.8c-1.6,1.6-3.6,2.8-5.9,3.7s-5,1.3-7.9,1.3c-3.2,0-6-0.5-8.4-1.4c-2.4-0.9-4.3-2.2-5.9-3.8
				c-1.6-1.6-2.7-3.6-3.5-5.9C859.3,538.7,858.9,536.2,858.9,533.5z M869.9,533.5c0,2.1,0.1,4.1,0.4,5.8c0.3,1.8,0.7,3.3,1.4,4.5
				s1.6,2.2,2.7,2.9c1.1,0.7,2.6,1,4.4,1c1,0,2-0.3,2.8-0.8s1.6-1.3,2.2-2.4s1.1-2.6,1.4-4.4s0.5-4,0.5-6.7c0-2.2-0.1-4.1-0.4-5.9
				s-0.7-3.2-1.3-4.5c-0.6-1.2-1.5-2.2-2.6-2.9c-1.1-0.7-2.4-1-4.1-1c-1.2,0-2.3,0.3-3.2,0.8s-1.6,1.3-2.3,2.4
				c-0.6,1.1-1.1,2.6-1.4,4.4C870.1,528.6,869.9,530.8,869.9,533.5z"/>
			<path d="M507.6,600.7h18.8v2.7c-0.5,0.3-1.1,0.6-1.8,0.8s-1.5,0.6-2.4,0.8v16l-0.8,6.6h0.4l2.8-5.3l12.9-21.7h13.4v2.7
				c-1.5,0.8-3.1,1.4-4.7,1.7v26.6c0.9,0.2,1.8,0.5,2.6,0.8s1.5,0.6,2.1,1v2.7H532v-2.7c1.3-0.8,2.7-1.3,4.3-1.7V615l0.7-5.6h-0.4
				l-2.7,5.3l-12.8,21.5h-13.5v-2.7c0.8-0.4,1.6-0.7,2.3-1s1.5-0.5,2.3-0.8v-26.6c-1.8-0.3-3.4-0.8-4.7-1.7L507.6,600.7L507.6,600.7
				z"/>
			<path d="M568.5,636.1h-14.1v-2.7c1.6-0.8,3.1-1.3,4.7-1.7l1.4-25.9c-1-0.4-1.9-0.8-2.6-1.2s-1.4-0.8-2.1-1.2v-2.7h17.6l6.1,17.1
				l1.3,4.9h0.2l1.5-5l6.2-17.1h17.8v2.7c-0.6,0.4-1.3,0.7-2.1,1c-0.8,0.3-1.6,0.5-2.6,0.7l1.4,26.6c1.6,0.3,3.1,0.8,4.7,1.7v2.7
				h-18.8v-2.7c0.5-0.2,1-0.5,1.7-0.8s1.5-0.6,2.6-0.9l-1.4-25.5h-0.6l-10.8,29.9h-3.5l-11.3-29.9h-0.6l-1.1,25.5
				c1.7,0.5,3.1,1.1,4.3,1.7L568.5,636.1L568.5,636.1z"/>
			<path d="M612.3,605.1c-0.7-0.2-1.4-0.4-2-0.7c-0.6-0.3-1.2-0.6-1.8-1v-2.7h18.6v2.6c-1,0.7-2.3,1.3-4,1.8l7.1,17.8l1.2,4.5h0.1
				l1.1-4.6l5.5-17.7c-1.4-0.3-2.7-0.8-3.9-1.7v-2.7H648v2.7c-1,0.7-2.3,1.2-4,1.7l-11.5,31c-1.1,3-2.3,5.5-3.4,7.4
				c-1.1,1.9-2.3,3.5-3.4,4.6s-2.3,1.9-3.4,2.4s-2.3,0.7-3.4,0.9c-0.5-0.4-0.9-1-1.3-1.6c-0.4-0.6-0.7-1.3-1-2s-0.5-1.5-0.7-2.2
				c-0.2-0.8-0.3-1.5-0.4-2.1l0.9-1.7h8.6c0.4-0.7,0.8-1.4,1.1-2.1c0.3-0.8,0.7-1.9,1.1-3.4L612.3,605.1z"/>
			<path d="M649,636.1v-2.7c1.3-0.8,2.9-1.3,4.7-1.7v-26.6c-0.9-0.2-1.8-0.4-2.6-0.7s-1.5-0.6-2.1-1v-2.7H667v2.7
				c-0.4,0.3-0.9,0.6-1.4,0.9c-0.5,0.3-1.2,0.5-1.8,0.8v27h9.9v-27c-0.6-0.2-1.2-0.4-1.9-0.7c-0.6-0.3-1.2-0.6-1.8-1v-2.7h17v2.7
				c-0.9,0.8-1.9,1.3-3.2,1.7v27h9.9v-27c-1.2-0.4-2.3-0.9-3.2-1.7v-2.7h18.1v2.7c-0.7,0.4-1.4,0.7-2.1,1c-0.8,0.3-1.6,0.5-2.6,0.8
				v27h6.9c-0.1,2.3-0.2,4.7-0.5,7.3c-0.3,2.6-0.6,5-0.9,7.2h-2.8l-3.8-10.5L649,636.1L649,636.1L649,636.1z"/>
			<path d="M746.5,630.2c-0.4,0.8-1,1.6-1.8,2.4s-1.8,1.6-3,2.2s-2.6,1.2-4.2,1.6c-1.6,0.4-3.3,0.6-5.1,0.6c-2.9,0-5.5-0.5-7.8-1.3
				s-4.1-2.1-5.7-3.8s-2.7-3.6-3.4-5.8c-0.8-2.3-1.2-4.8-1.2-7.6c0-6,1.6-10.6,4.7-13.8s7.6-4.7,13.2-4.7c2.4,0,4.6,0.3,6.8,1
				s3.9,1.8,5.2,3.3s2.4,3.5,2.9,6c0.5,2.5,0.5,5.5-0.1,9h-21.7c0.1,3.7,1,6.7,2.9,8.9s4.6,3.3,8.3,3.3c1.6,0,3.2-0.2,4.9-0.7
				c1.7-0.5,3-1.1,3.9-1.8L746.5,630.2z M731.8,603.9c-0.9,0-1.8,0.2-2.5,0.5s-1.4,0.9-1.9,1.8c-0.5,0.9-1,2-1.3,3.5
				s-0.6,3.3-0.7,5.6h11.3c0.3-3.7,0.1-6.5-0.6-8.5C735.4,604.9,733.9,603.9,731.8,603.9z"/>
			<path d="M782.4,630.4c-0.3,0.9-0.9,1.8-1.6,2.6c-0.8,0.8-1.7,1.5-2.7,2.1c-1.1,0.6-2.3,1.1-3.6,1.4c-1.3,0.3-2.8,0.5-4.2,0.5
				c-3.1,0-5.8-0.5-8-1.3c-2.2-0.9-4.1-2.1-5.6-3.8s-2.6-3.6-3.3-5.9s-1.1-4.8-1.1-7.6c0-6,1.6-10.6,4.9-13.8
				c3.3-3.2,7.9-4.8,14-4.8c2.3,0,4.4,0.3,6.4,0.8c1.9,0.5,3.5,1.1,4.8,1.8c-0.1,0.8-0.2,1.7-0.4,2.7c-0.2,1-0.4,1.9-0.6,2.9
				c-0.2,1-0.4,1.9-0.7,2.8c-0.3,0.9-0.6,1.7-0.9,2.3h-3.5l-3-8.4c-0.3-0.2-0.7-0.4-1.1-0.5c-0.4-0.1-0.9-0.2-1.7-0.2
				c-1.2,0-2.3,0.2-3.2,0.7c-0.9,0.5-1.7,1.2-2.3,2.3c-0.6,1.1-1.1,2.5-1.4,4.3c-0.3,1.8-0.4,4-0.4,6.7c0,1.9,0.2,3.7,0.6,5.4
				s1.1,3,1.9,4.3c0.9,1.2,2,2.2,3.3,2.8s2.9,1,4.7,1c1.6,0,3.1-0.2,4.3-0.7c1.2-0.5,2.3-1,3.1-1.7L782.4,630.4z"/>
			<path d="M813.8,636.1h-20.1v-2.7c0.7-0.4,1.5-0.7,2.4-1c0.9-0.3,1.8-0.5,2.6-0.7v-27h-5.2l-3.1,9.8h-3c-0.2-1-0.5-2.1-0.7-3.3
				c-0.2-1.2-0.4-2.5-0.5-3.7s-0.3-2.5-0.4-3.6c-0.1-1.2-0.2-2.2-0.2-3.1h36.2c0,0.8-0.1,1.9-0.1,3c-0.1,1.2-0.2,2.4-0.4,3.6
				c-0.2,1.3-0.4,2.5-0.6,3.8c-0.2,1.3-0.4,2.4-0.7,3.3h-3l-3.1-9.8h-5.2v27c1.1,0.3,2,0.5,2.8,0.8c0.8,0.2,1.5,0.5,2.2,0.9
				L813.8,636.1L813.8,636.1L813.8,636.1z"/>
			<path d="M861.1,625.8c0,1.9-0.4,3.5-1.2,4.8c-0.8,1.3-1.9,2.5-3.3,3.3c-1.4,0.8-3.1,1.5-5,1.9c-1.9,0.4-4,0.6-6.1,0.6
				c-1.5,0-2.8,0-3.9,0s-2-0.1-2.8-0.1s-1.5-0.1-2.1-0.1c-0.6,0-1.2,0-1.7,0h-10v-2.7c1.5-0.8,3-1.3,4.7-1.7v-26.6
				c-1.8-0.3-3.4-0.9-4.7-1.7v-2.7h9.6c2.3,0,4.3,0,6-0.1s3.5-0.1,5.2-0.1c4.5,0,7.9,0.6,10.2,1.9c2.3,1.3,3.5,3.4,3.5,6.6
				c0,1.1-0.2,2.2-0.7,3c-0.5,0.9-1.2,1.7-2,2.3c-0.8,0.7-1.7,1.2-2.7,1.6c-1,0.4-2,0.7-3,0.9c1.3,0.1,2.6,0.3,3.8,0.8
				c1.2,0.4,2.3,1,3.2,1.8s1.6,1.7,2.2,2.7C860.8,623.1,861.1,624.4,861.1,625.8z M839.8,616.9l6.3-0.7c0.8-0.5,1.5-1.3,2.2-2.3
				c0.7-1.1,1.1-2.4,1.1-3.9c0-3.6-2.1-5.5-6.3-5.5c-0.5,0-1.1,0-1.6,0c-0.6,0-1.1,0.1-1.6,0.2V616.9L839.8,616.9z M839.8,632.1
				c0.7,0.1,1.4,0.2,2.2,0.2c0.8,0,1.5,0,2,0c2.1,0,3.7-0.5,4.8-1.6c1.1-1.1,1.6-2.7,1.6-4.7c0-2-0.6-3.5-1.9-4.5
				c-1.3-1-2.9-1.5-4.9-1.5h-3.8L839.8,632.1L839.8,632.1L839.8,632.1z"/>
			<path d="M896.7,625.9c0,1,0,1.9,0.1,2.7c0,0.8,0.1,1.6,0.2,2.4l4.9,0.7v2.5c-0.6,0.3-1.3,0.6-2.3,0.8c-1,0.3-2,0.6-3,0.8
				s-2.1,0.5-3.1,0.6c-1,0.2-2,0.3-2.8,0.4h-2.4c-0.5-1.1-0.8-2.2-0.9-3.3s-0.2-2.4-0.2-4h-0.4c-0.2,0.9-0.6,1.9-1.2,2.7
				c-0.6,0.9-1.3,1.7-2.2,2.3c-0.9,0.7-1.9,1.3-3.1,1.7c-1.2,0.4-2.5,0.6-4,0.6c-1.6,0-3-0.2-4.3-0.7c-1.3-0.5-2.5-1.1-3.5-2
				s-1.8-1.9-2.3-3.1c-0.6-1.2-0.9-2.5-0.9-4.1c0-2.1,0.4-3.9,1.2-5.2s2.1-2.5,3.8-3.3s3.9-1.5,6.6-2c2.7-0.4,6-0.7,9.9-0.9
				c0.4-4.1,0.2-7-0.5-8.9c-0.7-1.9-2.2-2.8-4.6-2.8c-1.5,0-2.8,0.2-4,0.7l-3.3,8.5h-3.1c-0.4-0.6-0.7-1.2-1.1-2
				c-0.4-0.7-0.7-1.5-1-2.3s-0.6-1.7-0.8-2.5s-0.4-1.7-0.5-2.5c1.8-1.2,4.1-2.2,6.9-2.9c2.8-0.7,5.8-1.1,9-1.1
				c2.7,0,4.9,0.3,6.6,0.9c1.7,0.6,3,1.4,4,2.4c1,1,1.6,2.2,2,3.6c0.4,1.4,0.6,2.8,0.6,4.4c0,2.8-0.1,5.4-0.2,7.7
				C896.8,621.1,896.7,623.5,896.7,625.9z M880.8,631.3c1,0,1.8-0.2,2.6-0.6s1.3-0.8,1.8-1.3c0.5-0.5,0.9-1.1,1.1-1.7
				c0.3-0.6,0.5-1.2,0.6-1.6V619c-2.2,0-4,0.2-5.4,0.4s-2.5,0.6-3.3,1.2s-1.4,1.2-1.7,2s-0.4,1.8-0.4,3c0,1.8,0.4,3.2,1.3,4.2
				C878.1,630.8,879.3,631.3,880.8,631.3z"/>
		</g>
	</g>
</g>
</svg>
